<?xml version="1.0" encoding="UTF-8" standalone="no"?>
<svg
   width="32"
   height="32"
   viewBox="0 0 32 32"
   fill="none"
   version="1.1"
   id="svg13"
   sodipodi:docname="favicon.svg"
   inkscape:version="1.1.2 (0a00cf5339, 2022-02-04)"
   xmlns:inkscape="http://www.inkscape.org/namespaces/inkscape"
   xmlns:sodipodi="http://sodipodi.sourceforge.net/DTD/sodipodi-0.dtd"
   xmlns="http://www.w3.org/2000/svg"
   xmlns:svg="http://www.w3.org/2000/svg">
  <sodipodi:namedview
     id="namedview15"
     pagecolor="#ffffff"
     bordercolor="#666666"
     borderopacity="1.0"
     inkscape:pageshadow="2"
     inkscape:pageopacity="0.0"
     inkscape:pagecheckerboard="0"
     showgrid="false"
     inkscape:zoom="2.9444368"
     inkscape:cx="34.981222"
     inkscape:cy="75.566233"
     inkscape:window-width="1024"
     inkscape:window-height="715"
     inkscape:window-x="1366"
     inkscape:window-y="25"
     inkscape:window-maximized="1"
     inkscape:current-layer="svg13" />
  <rect
     width="32"
     height="32"
     rx="5"
     fill="#000000"
     id="rect2"
     x="0"
     y="0" />
  <defs
     id="defs11">
    <clipPath
       id="clip0_140_566">
      <rect
         width="32"
         height="32"
         fill="white"
         id="rect8" />
    </clipPath>
  </defs>
  <path
     style="fill:#9e3bfc;fill-opacity:1;stroke-width:0.0503685"
     d="m 13.353864,25.244744 -2.349571,-2.318372 -0.396226,0.03304 C 10.123294,22.999842 9.325871,22.912532 8.703884,22.750926 5.719655,21.975558 3.6579137,19.042412 3.9464495,15.982742 4.0231623,15.169251 4.1915484,14.58995 4.7002075,13.389536 5.4794294,11.550605 5.8033903,10.60323 6.0219555,9.5242789 6.1226543,9.0271757 6.1376226,8.8063279 6.135845,7.8438529 6.1340382,6.8878798 6.1182413,6.6641282 6.0204687,6.2141023 5.8919602,5.6225932 5.6189949,4.7763213 5.4032097,4.3004182 5.2779896,4.0242505 5.2712149,3.9887489 5.3550104,4.0478356 c 0.053628,0.037814 0.3456755,0.2447762 0.6490015,0.4599213 2.0961441,1.4867624 4.7058471,2.6394079 7.0951361,3.1337562 2.982957,0.6171789 5.908356,0.1957732 9.23221,-1.3299066 1.151501,-0.5285497 2.618538,-1.3905729 3.475425,-2.0421419 0.407256,-0.309674 0.410429,-0.3092335 0.254199,0.035328 -0.213537,0.4709455 -0.486981,1.3190019 -0.615633,1.9093134 -0.09914,0.4549129 -0.113704,0.666619 -0.113829,1.6549343 -1.52e-4,1.0459591 0.01053,1.1832755 0.138419,1.7819353 0.173797,0.8135794 0.576913,2.0324264 1.01821,3.0786224 0.186965,0.443242 0.429001,1.021221 0.537859,1.284397 0.899689,2.175088 0.60741,4.546929 -0.789064,6.403249 -0.838877,1.11511 -2.134968,1.985606 -3.474654,2.333685 -0.622028,0.161617 -1.419406,0.248915 -1.904251,0.208481 l -0.396292,-0.03305 -2.348885,2.318378 c -1.291886,1.27511 -2.362506,2.31838 -2.379156,2.31838 -0.01665,0 -1.087578,-1.043268 -2.379842,-2.318374 z m 3.560989,-1.860317 c 0.635669,-0.636119 1.145465,-1.16457 1.132881,-1.174335 -0.01259,-0.0098 -0.226873,-0.151518 -0.476198,-0.315006 -0.514734,-0.337525 -1.266875,-1.039541 -1.591762,-1.485681 -0.120486,-0.165453 -0.231495,-0.300824 -0.246687,-0.300824 -0.01519,0 -0.126201,0.135371 -0.246687,0.300824 -0.328528,0.451139 -1.10021,1.171533 -1.601005,1.494596 -0.244241,0.157561 -0.45437,0.294882 -0.466955,0.305159 -0.02435,0.01988 2.27056,2.331848 2.314647,2.331848 0.0143,0 0.546098,-0.520462 1.181766,-1.156581 z m -5.67503,-2.650476 c 1.242826,-0.255426 2.357327,-1.110701 2.924918,-2.244601 0.351492,-0.70219 0.469682,-1.174522 0.477072,-1.906563 0.0172,-1.703507 -0.892668,-3.180218 -2.409336,-3.910348 -0.707608,-0.340645 -0.978234,-0.396424 -1.914002,-0.394497 -0.776827,0.0016 -0.823156,0.0076 -1.284396,0.166271 -1.1548709,0.397295 -2.0066408,1.141283 -2.5180145,2.199388 -0.2948133,0.610011 -0.3993452,1.002807 -0.4384777,1.647656 -0.1320739,2.176396 1.4331651,4.121457 3.6112822,4.487598 0.320133,0.05382 1.193681,0.02852 1.550954,-0.0449 z M 9.890513,19.164774 C 9.588497,19.108444 9.122515,18.843638 8.855474,18.576598 8.453755,18.174879 8.264288,17.746784 8.237168,17.179554 c -0.02561,-0.535517 0.0712,-0.885364 0.36652,-1.324579 0.890495,-1.3244 2.889153,-1.203198 3.648372,0.221242 0.494516,0.927808 0.215515,2.112974 -0.641967,2.727003 -0.459491,0.329034 -1.133814,0.470815 -1.71958,0.361554 z m 12.381159,1.501855 c 1.945475,-0.564451 3.246308,-2.403832 3.116291,-4.406444 -0.04013,-0.618072 -0.148302,-1.017464 -0.437853,-1.616584 -0.510881,-1.057085 -1.334939,-1.782357 -2.482515,-2.184917 -0.506355,-0.177625 -0.525988,-0.180323 -1.319896,-0.181355 -0.943793,-0.0012 -1.217877,0.05612 -1.922972,0.402348 -1.502818,0.737937 -2.401535,2.180467 -2.400315,3.852742 8.41e-4,1.1532 0.381649,2.11063 1.166021,2.931623 0.622586,0.651653 1.374518,1.085391 2.200265,1.26918 0.504733,0.11234 1.583203,0.07783 2.080974,-0.06659 z m -1.824241,-1.561822 c -0.71165,-0.235037 -1.221076,-0.786565 -1.422293,-1.539834 -0.326797,-1.223395 0.621218,-2.532221 1.904217,-2.628952 0.920196,-0.06937 1.706608,0.390523 2.120918,1.240332 0.151498,0.310745 0.161352,0.364601 0.161924,0.884935 5.7e-4,0.519786 -0.0094,0.575156 -0.161004,0.895241 -0.211848,0.447242 -0.611208,0.8473 -1.051494,1.053335 -0.442007,0.20684 -1.09292,0.246652 -1.552268,0.09494 z"
     id="path17978" />
</svg>
