<?xml version="1.0" encoding="UTF-8" standalone="no"?>
<svg
   width="60"
   height="120"
   viewBox="0 0 60 120"
   fill="none"
   class="logo"
   version="1.1"
   id="svg10"
   sodipodi:docname="logo.svg"
   inkscape:version="1.1.2 (0a00cf5339, 2022-02-04)"
   xmlns:inkscape="http://www.inkscape.org/namespaces/inkscape"
   xmlns:sodipodi="http://sodipodi.sourceforge.net/DTD/sodipodi-0.dtd"
   xmlns="http://www.w3.org/2000/svg"
   xmlns:svg="http://www.w3.org/2000/svg">
  <defs
     id="defs14" />
  <sodipodi:namedview
     id="namedview12"
     pagecolor="#ffffff"
     bordercolor="#666666"
     borderopacity="1.0"
     inkscape:pageshadow="2"
     inkscape:pageopacity="0.0"
     inkscape:pagecheckerboard="0"
     showgrid="false"
     inkscape:zoom="3.1407326"
     inkscape:cx="68.455366"
     inkscape:cy="78.484873"
     inkscape:window-width="1024"
     inkscape:window-height="715"
     inkscape:window-x="1366"
     inkscape:window-y="25"
     inkscape:window-maximized="1"
     inkscape:current-layer="svg10" />
  <g
     id="g8"
     inkscape:label="ink_ext_XXXXXX"
     transform="matrix(0.29926282,0,0,-0.36815244,-46.000056,175.36639)">
    <path
       d="m 307.07477,452.89469 13.44499,13.44499 H 194.66011 l 13.44247,-13.44499 C 179.17089,435.89562 159.7369,404.47103 159.7369,368.48917 v -23.85264 -15.24472 -162.74895 -15.24472 -1.1494 c 108.08424,0 195.70355,87.61931 195.70355,195.70103 v 22.5394 c 0,35.98186 -19.43399,67.40645 -48.36568,84.40552"
       style="fill:#ebebea;fill-opacity:1;fill-rule:nonzero;stroke:none;stroke-width:0.252062"
       id="path56" />
    <path
       d="m 350.50003,355.5609 c 0,-108.08424 -87.61931,-195.70355 -195.70355,-195.70355 v 218.24042 c 0,54.04212 43.8084,97.85052 97.85052,97.85052 54.04211,0 97.85303,-43.8084 97.85303,-97.85052 V 355.5609"
       style="fill:#61506c;fill-opacity:1;fill-rule:nonzero;stroke:none;stroke-width:0.252062"
       id="path58" />
    <path
       d="m 260.29456,386.95272 c 0,-23.72913 -19.23486,-42.96399 -42.96399,-42.96399 -23.72913,0 -42.96399,19.23486 -42.96399,42.96399 0,23.72912 19.23486,42.96398 42.96399,42.96398 23.72913,0 42.96399,-19.23486 42.96399,-42.96398"
       style="fill:#482f46;fill-opacity:1;fill-rule:nonzero;stroke:none;stroke-width:0.252062"
       id="path60" />
    <path
       d="m 332.79519,386.95272 c 0,-23.72913 -19.23486,-42.96399 -42.96399,-42.96399 -23.72913,0 -42.96399,19.23486 -42.96399,42.96399 0,23.72912 19.23486,42.96398 42.96399,42.96398 23.72913,0 42.96399,-19.23486 42.96399,-42.96398"
       style="fill:#482f46;fill-opacity:1;fill-rule:nonzero;stroke:none;stroke-width:0.252062"
       id="path62" />
    <path
       d="m 260.29456,396.15802 c 0,-23.7266 -19.23486,-42.96146 -42.96399,-42.96146 -23.72913,0 -42.96399,19.23486 -42.96399,42.96146 0,23.72913 19.23486,42.96399 42.96399,42.96399 23.72913,0 42.96399,-19.23486 42.96399,-42.96399"
       style="fill:#ffffff;fill-opacity:1;fill-rule:nonzero;stroke:none;stroke-width:0.252062"
       id="path64" />
    <path
       d="m 240.55306,396.15802 c 0,-12.8224 -10.39757,-23.21996 -23.22249,-23.21996 -12.82492,0 -23.22248,10.39756 -23.22248,23.21996 0,12.82493 10.39756,23.22249 23.22248,23.22249 12.82492,0 23.22249,-10.39756 23.22249,-23.22249"
       style="fill:#51aee5;fill-opacity:1;fill-rule:nonzero;stroke:none;stroke-width:0.252062"
       id="path66" />
    <path
       d="m 224.01778,396.15802 c 0,-3.69271 -2.9945,-6.6872 -6.68721,-6.6872 -3.69523,0 -6.68973,2.99449 -6.68973,6.6872 0,3.69524 2.9945,6.68973 6.68973,6.68973 3.69271,0 6.68721,-2.99449 6.68721,-6.68973"
       style="fill:#351627;fill-opacity:1;fill-rule:nonzero;stroke:none;stroke-width:0.252062"
       id="path68" />
    <path
       d="m 206.23732,406.33125 c 0,-3.69523 -2.9945,-6.68973 -6.68721,-6.68973 -3.69271,0 -6.68721,2.9945 -6.68721,6.68973 0,3.69271 2.9945,6.68973 6.68721,6.68973 3.69271,0 6.68721,-2.99702 6.68721,-6.68973"
       style="fill:#ffffff;fill-opacity:1;fill-rule:nonzero;stroke:none;stroke-width:0.252062"
       id="path70" />
    <path
       d="m 332.79519,396.15802 c 0,-23.7266 -19.23486,-42.96146 -42.96399,-42.96146 -23.72913,0 -42.96399,19.23486 -42.96399,42.96146 0,23.72913 19.23486,42.96399 42.96399,42.96399 23.72913,0 42.96399,-19.23486 42.96399,-42.96399"
       style="fill:#ffffff;fill-opacity:1;fill-rule:nonzero;stroke:none;stroke-width:0.252062"
       id="path72" />
    <path
       d="m 313.67628,396.15802 c 0,-12.8224 -10.39757,-23.21996 -23.22249,-23.21996 -12.82492,0 -23.22248,10.39756 -23.22248,23.21996 0,12.82493 10.39756,23.22249 23.22248,23.22249 12.82492,0 23.22249,-10.39756 23.22249,-23.22249"
       style="fill:#51aee5;fill-opacity:1;fill-rule:nonzero;stroke:none;stroke-width:0.252062"
       id="path74" />
    <path
       d="m 297.14352,396.15802 c 0,-3.69271 -2.9945,-6.6872 -6.68973,-6.6872 -3.69019,0 -6.6872,2.99449 -6.6872,6.6872 0,3.69524 2.99701,6.68973 6.6872,6.68973 3.69523,0 6.68973,-2.99449 6.68973,-6.68973"
       style="fill:#351627;fill-opacity:1;fill-rule:nonzero;stroke:none;stroke-width:0.252062"
       id="path76" />
    <path
       d="m 279.36306,406.33125 c 0,-3.69523 -2.9945,-6.68973 -6.68721,-6.68973 -3.69523,0 -6.68973,2.9945 -6.68973,6.68973 0,3.69271 2.9945,6.68973 6.68973,6.68973 3.69271,0 6.68721,-2.99702 6.68721,-6.68973"
       style="fill:#ffffff;fill-opacity:1;fill-rule:nonzero;stroke:none;stroke-width:0.252062"
       id="path78" />
    <path
       d="m 252.647,413.02098 -62.92983,62.92731 h 125.85966 z"
       style="fill:#482f46;fill-opacity:1;fill-rule:nonzero;stroke:none;stroke-width:0.252062"
       id="path80" />
    <path
       d="m 218.72196,250.00485 c 0,49.15211 -42.67412,88.99809 -63.92548,88.99809 V 161.00675 c 21.25136,0 63.92548,39.8485 63.92548,88.9981"
       style="fill:#7d7d90;fill-opacity:1;fill-rule:nonzero;stroke:none;stroke-width:0.252062"
       id="path82" />
    <path
       d="m 218.72196,265.24956 c 0,49.1496 -42.67412,88.99558 -63.92548,88.99558 V 176.25147 c 21.25136,0 63.92548,39.84598 63.92548,88.99809"
       style="fill:#482f46;fill-opacity:1;fill-rule:nonzero;stroke:none;stroke-width:0.252062"
       id="path84" />
    <path
       d="m 254.01317,328.73645 -15.73119,29.54168 15.73119,15.7312 15.73624,-15.7312 -15.73624,-29.54168"
       style="fill:#7d7d90;fill-opacity:1;fill-rule:nonzero;stroke:none;stroke-width:0.252062"
       id="path86" />
    <path
       d="m 254.01317,328.73645 v 45.27288 l -15.73119,-15.7312 z"
       style="fill:#a29ba8;fill-opacity:1;fill-rule:nonzero;stroke:none;stroke-width:0.252062"
       id="path88" />
  </g>
  <text
     xml:space="preserve"
     style="font-size:40px;line-height:1.25;font-family:sans-serif;letter-spacing:0px"
     x="-41.323212"
     y="125.73665"
     id="text805"><tspan
       sodipodi:role="line"
       id="tspan803"
       x="-41.323212"
       y="125.73665" /></text>
</svg>
